<?xml version="1.0" encoding="UTF-8" standalone="no"?>
<svg
   xmlns:sketch="http://www.bohemiancoding.com/sketch/ns"
   xmlns:dc="http://purl.org/dc/elements/1.1/"
   xmlns:cc="http://creativecommons.org/ns#"
   xmlns:rdf="http://www.w3.org/1999/02/22-rdf-syntax-ns#"
   xmlns:svg="http://www.w3.org/2000/svg"
   xmlns="http://www.w3.org/2000/svg"
   xmlns:sodipodi="http://sodipodi.sourceforge.net/DTD/sodipodi-0.dtd"
   xmlns:inkscape="http://www.inkscape.org/namespaces/inkscape"
   version="1.1"
   x="0px"
   y="0px"
   viewBox="0 0 586 559"
   style="enable-background:new 0 0 586 559;"
   xml:space="preserve"
   id="svg28"
   sodipodi:docname="gitlab.svg"
   inkscape:version="1.0.2 (e86c870879, 2021-01-15)"><metadata
   id="metadata34"><rdf:RDF><cc:Work
       rdf:about=""><dc:format>image/svg+xml</dc:format><dc:type
         rdf:resource="http://purl.org/dc/dcmitype/StillImage" /><dc:title></dc:title></cc:Work></rdf:RDF></metadata><defs
   id="defs32" /><sodipodi:namedview
   pagecolor="#000000"
   bordercolor="#666666"
   borderopacity="1"
   objecttolerance="10"
   gridtolerance="10"
   guidetolerance="10"
   inkscape:pageopacity="1"
   inkscape:pageshadow="2"
   inkscape:window-width="1362"
   inkscape:window-height="728"
   id="namedview30"
   showgrid="false"
   inkscape:zoom="1.0214669"
   inkscape:cx="334.69861"
   inkscape:cy="312.26538"
   inkscape:window-x="0"
   inkscape:window-y="0"
   inkscape:window-maximized="1"
   inkscape:current-layer="logo_art" />
<style
   type="text/css"
   id="style2">
	.st0{fill:#FAFAFA;}
	.st1{fill:#F0F0F0;}
	.st2{fill:#FFFFFF;}
	.st3{fill:#E24329;}
	.st4{fill:#FCA326;}
	.st5{fill:#FC6D26;}
	.st6{fill:#8C929D;}
	.st7{fill:#2E2E2E;}
	.st8{fill:none;stroke:#FCA326;stroke-width:16;stroke-linecap:round;stroke-linejoin:round;stroke-miterlimit:10;}
	.st9{fill:none;stroke:#FC6D26;stroke-width:16;stroke-linecap:round;stroke-linejoin:round;stroke-miterlimit:10;}
	.st10{fill:none;stroke:#E24329;stroke-width:16;stroke-linecap:round;stroke-linejoin:round;stroke-miterlimit:10;}
	.st11{fill:none;stroke:#F0F0F0;stroke-miterlimit:10;}
	.st12{fill:#231F20;}
	.st13{fill:none;stroke:#231F20;stroke-width:16;stroke-linecap:round;stroke-linejoin:round;stroke-miterlimit:10;}
	.st14{display:none;}
	.st15{display:inline;opacity:0.1;fill:#E828E3;}
	.st16{display:inline;}
	.st17{opacity:0.1;fill:#E828E3;}
	.st18{font-family:'SourceSansPro-Semibold';}
	.st19{font-size:24px;}
	.st20{display:inline;fill:#DB3B21;}
	.st21{display:inline;fill:#FC6D26;}
	.st22{display:inline;fill:#2E2E2E;}
	.st23{display:inline;fill:#6E49CB;}
	.st24{display:inline;fill:#380D75;}
	.st25{display:inline;fill:#FCA121;}
	.st26{opacity:0.6;fill:none;stroke:#231F20;stroke-width:2;stroke-miterlimit:10;stroke-dasharray:12,6;}
	.st27{fill:none;stroke:#444444;stroke-width:1.5339;stroke-miterlimit:10;}
</style>
<g
   id="logo_art">
	<path
   class="st2"
   d="m 583.40607,313.55286 -31.07564,-95.70622 c 0.0137,0.043 0.019,0.0877 0.0328,0.13085 -0.0154,-0.0499 -0.0242,-0.0999 -0.0378,-0.1498 -10e-4,-0.004 -10e-4,-0.005 -10e-4,-0.009 0,-0.001 0,-0.004 0,-0.004 L 490.6337,27.890803 c -3.37461,-10.005016 -12.65993,-16.719792 -23.30542,-16.637148 -10.67651,0.05509 -19.70702,6.64074 -23.00932,16.783497 L 385.76268,208.31166 H 200.99787 L 142.3314,28.025098 c -3.29886,-10.134146 -12.33108,-16.718069 -23.00585,-16.773165 -0.043,0 -0.0843,0 -0.12913,0 -10.51121,0 -19.815481,6.673453 -23.226242,16.790383 l -61.521119,189.754394 -0.0086,0.0242 c 0,0.001 0,0.004 0,0.005 -0.01549,0.0482 -0.02239,0.0963 -0.03788,0.14462 0.01377,-0.043 0.01895,-0.0877 0.03271,-0.13086 L 3.2459871,313.55282 c -4.6917343,14.44881 0.3994431,30.15106 12.6719869,39.07826 L 285.22527,548.30313 c 0.0396,0.0292 0.0843,0.0464 0.12393,0.0758 0.11534,0.0826 0.22727,0.167 0.34435,0.24449 -0.11015,-0.0741 -0.21349,-0.15498 -0.32196,-0.23072 0,0 0,-10e-4 -0.001,-10e-4 0.0172,0.0137 0.0378,0.0224 0.0567,0.0344 0.0154,0.0101 0.031,0.0172 0.0465,0.0276 10e-4,10e-4 0.004,0.004 0.006,0.005 0.41666,0.28925 0.84882,0.55439 1.29646,0.79716 0.062,0.0344 0.11711,0.0775 0.17906,0.11015 10e-4,0 10e-4,0.001 0.004,0.001 0.0378,0.0189 0.0724,0.043 0.11015,0.062 0.0292,0.0138 0.0604,0.0224 0.0877,0.0362 0.0206,0.0101 0.043,0.0172 0.0638,0.0258 0.0499,0.0242 0.10497,0.0396 0.15495,0.0654 0.23415,0.11192 0.48037,0.20317 0.7214,0.3013 0.22556,0.0929 0.44423,0.20144 0.67494,0.28237 0.0101,0.004 0.0189,0.009 0.0294,0.0126 0.0378,0.0137 0.0723,0.0328 0.11192,0.0465 0.0482,0.0172 0.0947,0.0362 0.1429,0.0516 0.019,0.005 0.0378,0.009 0.0568,0.0138 0.0604,0.0189 0.12571,0.0276 0.18594,0.0447 0.0224,0.006 0.0482,0.0101 0.0723,0.0172 0.3237,0.0982 0.65944,0.16873 0.99345,0.24276 0.13085,0.0294 0.25654,0.0706 0.38912,0.0948 0.019,0.004 0.0362,0.0101 0.0568,0.0137 0.043,0.009 0.0826,0.0242 0.1274,0.031 0.0706,0.0126 0.13947,0.0344 0.21177,0.0448 0.0567,0.009 0.11534,0.005 0.17219,0.0138 0.0101,10e-4 0.0189,0 0.0292,10e-4 0.004,0 0.005,0 0.009,0 0.63532,0.0913 1.27924,0.15496 1.93522,0.15496 0.004,0 0.006,0 0.0126,0 v 0 c 10e-4,0 0.004,0 0.004,0 0,0 0.001,0 0.001,0 10e-4,0 0.004,0 0.005,0 0.65771,0 1.30164,-0.0638 1.93868,-0.15496 0.001,0 0.005,0 0.006,0 0.0101,-10e-4 0.0207,0 0.031,-10e-4 0.0567,-0.009 0.1171,-0.005 0.17389,-0.0138 0.0724,-0.0126 0.14118,-0.0328 0.21349,-0.0448 0.043,-0.006 0.0826,-0.0224 0.12571,-0.031 0.019,-0.004 0.0362,-0.0101 0.0551,-0.0137 0.13431,-0.0258 0.26344,-0.0672 0.39774,-0.0964 0.32885,-0.0723 0.65942,-0.14291 0.98138,-0.23932 0.0224,-0.006 0.0447,-0.009 0.0672,-0.0154 0.0638,-0.019 0.12913,-0.0276 0.19283,-0.0465 0.019,-0.006 0.0396,-0.009 0.0586,-0.0137 0.0499,-0.0155 0.0981,-0.0362 0.14636,-0.0533 0.0379,-0.0137 0.0724,-0.0328 0.11015,-0.0465 0.0101,-0.004 0.019,-0.009 0.0292,-0.0126 0.2445,-0.0861 0.4752,-0.19973 0.71452,-0.29786 0.22211,-0.0929 0.44938,-0.17563 0.66631,-0.27892 0.0533,-0.0258 0.11016,-0.0414 0.16186,-0.0672 0.0206,-0.0101 0.0447,-0.0172 0.0654,-0.0276 0.0292,-0.0137 0.0604,-0.0224 0.0895,-0.0379 0.0396,-0.0206 0.0775,-0.0448 0.11534,-0.0638 0,0 10e-4,0 10e-4,-10e-4 0.0638,-0.0328 0.12052,-0.0792 0.18422,-0.11369 0.44421,-0.24103 0.87465,-0.50445 1.28959,-0.79199 0.0328,-0.0223 0.0706,-0.0396 0.10497,-0.0638 0.009,-0.006 0.0189,-0.0101 0.0276,-0.0172 0.0396,-0.0294 0.0861,-0.0482 0.1257,-0.0775 L 570.74098,352.62595 c 12.26564,-8.92203 17.35683,-24.62428 12.66509,-39.07309 z M 467.49872,45.683237 520.32162,208.31166 H 414.67581 Z m 43.572,190.128013 -21.55443,27.61838 -158.9749,203.69359 75.20032,-231.31197 z M 280.23223,541.42822 c 0,0 0,0 0,0 0.0138,0.0413 0.0362,0.0792 0.0499,0.1223 -0.0138,-0.043 -0.0362,-0.0809 -0.0499,-0.1223 z M 256.11413,467.13699 75.682946,235.81125 v 0 H 181.01884 Z M 119.15853,45.681515 172.07957,208.31166 H 66.433774 Z M 32.088557,330.388 c -2.610154,-1.89908 -3.691404,-5.2513 -2.691076,-8.32977 L 52.582396,250.90743 222.46622,468.71065 Z M 284.75179,547.93985 c -0.0533,-0.043 -0.10497,-0.0895 -0.15668,-0.1343 -0.0101,-0.009 -0.0206,-0.0207 -0.0328,-0.0292 -0.10332,-0.0861 -0.20489,-0.17389 -0.30475,-0.26342 -0.19627,-0.17046 -0.3891,-0.34435 -0.57334,-0.52686 0.0154,0.0137 0.0328,0.0258 0.0482,0.0396 0.0206,0.019 0.043,0.0344 0.0638,0.0533 0.39428,0.37705 0.80922,0.73173 1.24309,1.05886 0.005,0.004 0.009,0.009 0.0138,0.0126 0.0206,0.0154 0.0379,0.0344 0.0585,0.0516 -0.11876,-0.0861 -0.24276,-0.16873 -0.35984,-0.26169 z M 293.31743,492.67724 249.12905,356.5584 209.93198,235.81125 h 166.89315 z m 9.04428,54.83561 c -0.10331,0.0895 -0.20316,0.17906 -0.30818,0.26514 -0.0126,0.0101 -0.0242,0.0224 -0.0362,0.0328 -0.0533,0.043 -0.10332,0.0895 -0.15495,0.13256 -0.11356,0.0913 -0.2376,0.17391 -0.3564,0.26171 0.0206,-0.0154 0.0378,-0.0362 0.0603,-0.0499 0.004,-0.004 0.006,-0.006 0.0101,-0.0101 0.43389,-0.32713 0.84709,-0.67836 1.23793,-1.05542 0.0154,-0.0154 0.0344,-0.0276 0.0499,-0.0413 0.0207,-0.019 0.043,-0.0344 0.062,-0.0533 -0.18251,0.17732 -0.37363,0.3495 -0.56474,0.51823 z M 554.5704,330.38283 364.22029,468.6676 534.16094,250.92465 l 23.09194,71.11981 c 1.00204,3.09224 -0.0775,6.44446 -2.68248,8.33837 z"
   id="path4"
   style="stroke-width:1.72174" />
</g>
<g
   id="spacing_guides"
   class="st14">
	<path
   id="path40_63_"
   sketch:type="MSShapeGroup"
   class="st15"
   d="M0,0.5v124h586V0.5H0L0,0.5z" />
	<path
   id="path40_36_"
   sketch:type="MSShapeGroup"
   class="st15"
   d="M0,435.5v124h586v-124H0L0,435.5z" />
	<path
   id="path40_25_"
   sketch:type="MSShapeGroup"
   class="st15"
   d="M462.2,560h124V0h-124V560L462.2,560z" />
	<g
   class="st16"
   id="g12">
		<text
   transform="matrix(1 0 0 1 511.2881 283.332)"
   class="st18 st19"
   id="text10">1x</text>
	</g>
	<g
   class="st16"
   id="g16">
		<text
   transform="matrix(1 0 0 1 281.2881 500.9979)"
   class="st18 st19"
   id="text14">1x</text>
	</g>
	<g
   class="st16"
   id="g20">
		<text
   transform="matrix(1 0 0 1 281.2881 65.9981)"
   class="st18 st19"
   id="text18">1x</text>
	</g>
	<path
   id="path40_24_"
   sketch:type="MSShapeGroup"
   class="st15"
   d="M0,560h124V0H0V560L0,560z" />
	<g
   class="st16"
   id="g25">
		<text
   transform="matrix(1 0 0 1 51.2881 283.332)"
   class="st18 st19"
   id="text23">1x</text>
	</g>
</g>
</svg>
