# Blender v2.83.2 OBJ File: 'untitled.blend'
# www.blender.org
mtllib table.mtl
o SketchUp_ID38
v 1.117600 0.419100 0.000000
v 1.041400 0.000000 0.000000
v 1.117600 0.000000 0.000000
v 1.041400 0.393700 0.000000
v 0.076200 0.393700 0.000000
v 0.000000 0.000000 0.000000
v 0.076200 0.000000 0.000000
v 0.000000 0.419100 0.000000
v 1.117600 0.419100 0.000000
v 0.076200 0.393700 0.000000
v 0.000000 0.419100 0.000000
v 0.000000 0.000000 0.000000
v 0.076200 0.000000 0.000000
v 1.041400 0.393700 0.000000
v 1.041400 0.000000 0.000000
v 1.117600 0.000000 0.000000
v 0.000000 0.000000 0.000000
v 0.000000 0.419100 0.000000
v 0.076200 0.000000 0.000000
v 0.076200 0.393700 0.000000
v 1.041400 0.393700 0.000000
v 1.041400 0.000000 0.000000
v 1.117600 0.000000 0.000000
v 1.117600 0.419100 0.000000
v 0.000000 0.419100 0.000000
v 0.000000 0.393700 -0.076200
v 0.000000 0.000000 0.000000
v 0.000000 0.419100 -1.117600
v 0.000000 0.393700 -1.041400
v 0.000000 0.000000 -1.041400
v 0.000000 0.000000 -1.117600
v 0.000000 0.000000 -0.076200
v 0.000000 0.393700 -0.076200
v 0.000000 0.000000 0.000000
v 0.000000 0.000000 -0.076200
v 0.000000 0.000000 -1.117600
v 0.000000 0.419100 -1.117600
v 0.000000 0.000000 -1.041400
v 0.000000 0.393700 -1.041400
v 0.000000 0.419100 0.000000
v 0.000000 0.000000 -1.117600
v 0.000000 0.419100 -1.117600
v 0.000000 0.000000 -1.041400
v 0.000000 0.393700 -1.041400
v 0.000000 0.393700 -0.076200
v 0.000000 0.000000 -0.076200
v 0.076200 0.000000 -0.076200
v 0.000000 0.000000 0.000000
v 0.000000 0.000000 -0.076200
v 0.076200 0.000000 0.000000
v 0.076200 0.000000 0.000000
v 0.076200 0.000000 -0.076200
v 0.000000 0.000000 0.000000
v 0.000000 0.000000 -0.076200
v 0.076200 0.000000 -0.076200
v 0.076200 0.000000 -0.076200
v 0.076200 0.393700 0.000000
v 0.076200 0.000000 0.000000
v 0.076200 0.393700 -0.076200
v 0.076200 0.393700 -0.076200
v 0.076200 0.000000 -0.076200
v 0.076200 0.393700 0.000000
v 0.076200 0.000000 0.000000
v 0.076200 0.393700 -0.076200
v 1.041400 0.393700 -0.076200
v 0.076200 0.393700 0.000000
v 0.076200 0.393700 -0.076200
v 1.041400 0.393700 0.000000
v 1.041400 0.393700 0.000000
v 1.041400 0.393700 -0.076200
v 0.076200 0.393700 0.000000
v 0.076200 0.393700 -0.076200
v 1.041400 0.393700 -0.076200
v 1.041400 0.393700 -0.076200
v 1.041400 0.000000 0.000000
v 1.041400 0.393700 0.000000
v 1.041400 0.000000 -0.076200
v 1.041400 0.000000 -0.076200
v 1.041400 0.393700 -0.076200
v 1.041400 0.000000 0.000000
v 1.041400 0.393700 0.000000
v 1.041400 0.000000 -0.076200
v 1.117600 0.000000 -0.076200
v 1.041400 0.000000 0.000000
v 1.041400 0.000000 -0.076200
v 1.117600 0.000000 0.000000
v 1.117600 0.000000 0.000000
v 1.117600 0.000000 -0.076200
v 1.041400 0.000000 0.000000
v 1.041400 0.000000 -0.076200
v 1.117600 0.000000 -0.076200
v 1.117600 0.000000 -1.117600
v 1.117600 0.393700 -1.041400
v 1.117600 0.000000 -1.041400
v 1.117600 0.000000 -0.076200
v 1.117600 0.419100 0.000000
v 1.117600 0.000000 0.000000
v 1.117600 0.393700 -0.076200
v 1.117600 0.419100 -1.117600
v 1.117600 0.000000 -1.117600
v 1.117600 0.393700 -1.041400
v 1.117600 0.419100 -1.117600
v 1.117600 0.393700 -0.076200
v 1.117600 0.419100 0.000000
v 1.117600 0.000000 -0.076200
v 1.117600 0.000000 0.000000
v 1.117600 0.000000 -1.041400
v 1.117600 0.393700 -0.076200
v 1.117600 0.393700 -1.041400
v 1.117600 0.000000 -1.041400
v 1.117600 0.000000 -1.117600
v 1.117600 0.419100 -1.117600
v 1.117600 0.419100 0.000000
v 0.076200 0.419100 -0.076200
v 0.000000 0.419100 0.000000
v 1.041400 0.419100 -0.076200
v 1.041400 0.419100 -0.076200
v 1.117600 0.419100 0.000000
v 0.076200 0.419100 -0.076200
v 0.000000 0.419100 0.000000
v 0.076200 0.419100 -0.076200
v 1.041400 0.419100 -0.076200
v 0.000000 0.419100 -1.117600
v 0.076200 0.000000 -1.117600
v 0.000000 0.000000 -1.117600
v 0.076200 0.393700 -1.117600
v 1.041400 0.393700 -1.117600
v 1.117600 0.000000 -1.117600
v 1.041400 0.000000 -1.117600
v 1.117600 0.419100 -1.117600
v 0.000000 0.419100 -1.117600
v 1.041400 0.393700 -1.117600
v 1.117600 0.419100 -1.117600
v 1.117600 0.000000 -1.117600
v 1.041400 0.000000 -1.117600
v 0.076200 0.393700 -1.117600
v 0.076200 0.000000 -1.117600
v 0.000000 0.000000 -1.117600
v 1.041400 0.000000 -1.117600
v 1.041400 0.393700 -1.117600
v 0.076200 0.393700 -1.117600
v 0.076200 0.000000 -1.117600
v 0.076200 0.000000 -1.117600
v 0.000000 0.000000 -1.041400
v 0.000000 0.000000 -1.117600
v 0.076200 0.000000 -1.041400
v 0.076200 0.000000 -1.041400
v 0.076200 0.000000 -1.117600
v 0.000000 0.000000 -1.041400
v 0.000000 0.000000 -1.117600
v 0.076200 0.000000 -1.041400
v 0.076200 0.393700 -1.041400
v 0.000000 0.000000 -1.041400
v 0.076200 0.000000 -1.041400
v 0.000000 0.393700 -1.041400
v 0.000000 0.393700 -1.041400
v 0.076200 0.393700 -1.041400
v 0.000000 0.000000 -1.041400
v 0.076200 0.000000 -1.041400
v 0.076200 0.393700 -1.041400
v 0.076200 0.393700 -1.041400
v 0.000000 0.393700 -0.076200
v 0.000000 0.393700 -1.041400
v 0.076200 0.393700 -1.041400
v 0.000000 0.393700 -0.076200
v 0.000000 0.393700 -1.041400
v 0.000000 0.393700 -0.076200
v 0.076200 0.000000 -0.076200
v 0.000000 0.000000 -0.076200
v 0.076200 0.393700 -0.076200
v 0.076200 0.393700 -0.076200
v 0.000000 0.393700 -0.076200
v 0.076200 0.000000 -0.076200
v 0.000000 0.000000 -0.076200
v 0.000000 0.419100 -1.117600
v 0.076200 0.419100 -1.041400
v 0.076200 0.419100 -1.041400
v 0.000000 0.419100 -1.117600
v 0.076200 0.419100 -1.041400
v 0.076200 0.419100 -0.076200
v 1.041400 0.393700 -0.076200
v 0.076200 0.393700 -0.076200
v 1.041400 0.419100 -0.076200
v 1.041400 0.419100 -0.076200
v 0.076200 0.419100 -0.076200
v 1.041400 0.393700 -0.076200
v 0.076200 0.393700 -0.076200
v 1.041400 0.393700 -0.076200
v 1.117600 0.000000 -0.076200
v 1.041400 0.000000 -0.076200
v 1.117600 0.393700 -0.076200
v 1.117600 0.393700 -0.076200
v 1.041400 0.393700 -0.076200
v 1.117600 0.000000 -0.076200
v 1.041400 0.000000 -0.076200
v 1.117600 0.393700 -1.041400
v 1.041400 0.393700 -1.041400
v 1.117600 0.393700 -0.076200
v 1.117600 0.393700 -0.076200
v 1.117600 0.393700 -1.041400
v 1.041400 0.393700 -1.041400
v 1.041400 0.393700 -1.041400
v 1.117600 0.393700 -1.041400
v 1.041400 0.000000 -1.041400
v 1.117600 0.000000 -1.041400
v 1.041400 0.393700 -1.041400
v 1.041400 0.393700 -1.041400
v 1.117600 0.393700 -1.041400
v 1.041400 0.000000 -1.041400
v 1.117600 0.000000 -1.041400
v 1.041400 0.000000 -1.041400
v 1.117600 0.000000 -1.117600
v 1.041400 0.000000 -1.041400
v 1.041400 0.000000 -1.117600
v 1.117600 0.000000 -1.041400
v 1.117600 0.000000 -1.041400
v 1.117600 0.000000 -1.117600
v 1.041400 0.000000 -1.041400
v 1.041400 0.000000 -1.117600
v 1.041400 0.419100 -1.041400
v 1.117600 0.419100 -1.117600
v 1.117600 0.419100 -1.117600
v 1.041400 0.419100 -1.041400
v 1.041400 0.419100 -1.041400
v 1.041400 0.393700 -1.117600
v 1.041400 0.000000 -1.041400
v 1.041400 0.393700 -1.041400
v 1.041400 0.000000 -1.117600
v 1.041400 0.000000 -1.117600
v 1.041400 0.393700 -1.117600
v 1.041400 0.000000 -1.041400
v 1.041400 0.393700 -1.041400
v 1.041400 0.393700 -1.117600
v 0.076200 0.393700 -1.117600
v 1.041400 0.393700 -1.117600
v 0.076200 0.393700 -1.117600
v 0.076200 0.000000 -1.117600
v 0.076200 0.393700 -1.041400
v 0.076200 0.000000 -1.041400
v 0.076200 0.393700 -1.117600
v 0.076200 0.393700 -1.117600
v 0.076200 0.000000 -1.117600
v 0.076200 0.393700 -1.041400
v 0.076200 0.000000 -1.041400
v 0.076200 0.393700 -1.041400
v 0.076200 0.419100 -0.076200
v 0.076200 0.393700 -0.076200
v 0.076200 0.419100 -1.041400
v 0.076200 0.419100 -1.041400
v 0.076200 0.393700 -1.041400
v 0.076200 0.419100 -0.076200
v 0.076200 0.393700 -0.076200
v 1.041400 0.419100 -1.041400
v 1.041400 0.419100 -0.076200
v 1.041400 0.419100 -1.041400
v 1.041400 0.419100 -0.076200
v 1.041400 0.419100 -1.041400
v 0.076200 0.393700 -1.041400
v 1.041400 0.393700 -1.041400
v 0.076200 0.419100 -1.041400
v 0.076200 0.419100 -1.041400
v 1.041400 0.419100 -1.041400
v 0.076200 0.393700 -1.041400
v 1.041400 0.393700 -1.041400
vt 1.833333 0.687500
vt 1.708333 0.000000
vt 1.833333 0.000000
vt 1.708333 0.645833
vt 0.125000 0.645833
vt 0.000000 0.000000
vt 0.125000 0.000000
vt 0.000000 0.687500
vt 0.000000 0.687500
vt -0.125000 0.645833
vt 0.000000 0.000000
vt -1.833333 0.687500
vt -1.708333 0.645833
vt -1.708333 0.000000
vt -1.833333 0.000000
vt -0.125000 0.000000
vt -0.125000 0.125000
vt 0.000000 0.000000
vt 0.000000 0.125000
vt -0.125000 0.000000
vt 0.125000 0.000000
vt 0.000000 0.645833
vt 0.000000 0.000000
vt 0.125000 0.645833
vt -1.708333 0.125000
vt -0.125000 0.000000
vt -0.125000 0.125000
vt -1.708333 0.000000
vt -0.125000 0.645833
vt 0.000000 0.000000
vt 0.000000 0.645833
vt -0.125000 0.000000
vt -1.833333 0.125000
vt -1.708333 0.000000
vt -1.708333 0.125000
vt -1.833333 0.000000
vt 1.833333 0.000000
vt 1.708333 0.645833
vt 1.708333 0.000000
vt 0.125000 0.000000
vt 0.000000 0.687500
vt 0.000000 0.000000
vt 0.125000 0.645833
vt 1.833333 0.687500
vt 1.833333 0.000000
vt 0.125000 0.125000
vt 0.000000 0.000000
vt 1.708333 0.125000
vt 0.000000 0.687500
vt -0.125000 0.000000
vt 0.000000 0.000000
vt -0.125000 0.645833
vt -1.708333 0.645833
vt -1.833333 0.000000
vt -1.708333 0.000000
vt -1.833333 0.687500
vt -0.125000 1.833333
vt 0.000000 1.708333
vt 0.000000 1.833333
vt -0.125000 1.708333
vt 0.125000 0.645833
vt 0.000000 0.000000
vt 0.125000 0.000000
vt 0.000000 0.645833
vt -0.125000 1.708333
vt 0.000000 0.125000
vt 0.000000 1.708333
vt 0.000000 0.645833
vt -0.125000 0.000000
vt 0.000000 0.000000
vt -0.125000 0.645833
vt 0.000000 1.833333
vt 0.125000 1.708333
vt -0.125000 0.687500
vt -1.708333 0.645833
vt -0.125000 0.645833
vt -1.708333 0.687500
vt -1.708333 0.645833
vt -1.833333 0.000000
vt -1.708333 0.000000
vt -1.833333 0.645833
vt -1.833333 1.708333
vt -1.708333 1.708333
vt -1.833333 0.125000
vt 1.833333 0.645833
vt 1.708333 0.000000
vt 1.833333 0.000000
vt 1.708333 0.645833
vt -1.833333 1.833333
vt -1.708333 1.708333
vt -1.708333 1.833333
vt -1.833333 1.708333
vt 1.708333 1.708333
vt 1.833333 1.833333
vt -1.833333 0.645833
vt -1.708333 0.000000
vt -1.708333 0.645833
vt -1.833333 0.000000
vt -1.708333 1.833333
vt -0.125000 1.833333
vt 1.833333 0.000000
vt 1.708333 0.645833
vt 1.708333 0.000000
vt 1.833333 0.645833
vt 1.708333 0.645833
vt 0.125000 0.687500
vt 0.125000 0.645833
vt 1.708333 0.687500
vt -1.708333 0.687500
vt -0.125000 0.687500
vt 1.708333 0.687500
vt 0.125000 0.645833
vt 1.708333 0.645833
vt 0.125000 0.687500
vt 0.000000 0.000000
vt 0.000000 0.000000
vt 0.000000 0.000000
vt 0.000000 0.000000
vt 0.000000 0.000000
vt 0.000000 0.000000
vt 0.000000 0.000000
vt 0.000000 0.000000
vt 0.000000 0.000000
vt 0.000000 0.000000
vt 0.000000 0.000000
vt 0.000000 0.000000
vt 0.000000 0.000000
vt 0.000000 0.000000
vt 0.000000 0.000000
vt 0.000000 0.000000
vt 0.000000 0.000000
vt 0.000000 0.000000
vt 0.000000 0.000000
vt 0.000000 0.000000
vt 0.000000 0.000000
vt 0.000000 0.000000
vt 0.000000 0.000000
vt 0.000000 0.000000
vt 0.000000 0.000000
vt 0.000000 0.000000
vt 0.000000 0.000000
vt 0.000000 0.000000
vt 0.000000 0.000000
vt 0.000000 0.000000
vt 0.000000 0.000000
vt 0.000000 0.000000
vt 0.000000 0.000000
vt 0.000000 0.000000
vt 0.000000 0.000000
vt 0.000000 0.000000
vt 0.000000 0.000000
vt 0.000000 0.000000
vt 0.000000 0.000000
vt 0.000000 0.000000
vt 0.000000 0.000000
vt 0.000000 0.000000
vt 0.000000 0.000000
vt 0.000000 0.000000
vt 0.000000 0.000000
vt 0.000000 0.000000
vt 0.000000 0.000000
vt 0.000000 0.000000
vt 0.000000 0.000000
vt 0.000000 0.000000
vt 0.000000 0.000000
vt 0.000000 0.000000
vt 0.000000 0.000000
vt 0.000000 0.000000
vt 0.000000 0.000000
vt 0.000000 0.000000
vt 0.000000 0.000000
vt 0.000000 0.000000
vt 0.000000 0.000000
vt 0.000000 0.000000
vt 0.000000 0.000000
vt 0.000000 0.000000
vt 0.000000 0.000000
vt 0.000000 0.000000
vt 0.000000 0.000000
vt 0.000000 0.000000
vt 0.000000 0.000000
vt 0.000000 0.000000
vt 0.000000 0.000000
vt 0.000000 0.000000
vt 0.000000 0.000000
vt 0.000000 0.000000
vt 0.000000 0.000000
vt 0.000000 0.000000
vt 0.000000 0.000000
vt 0.000000 0.000000
vt 0.000000 0.000000
vt 0.000000 0.000000
vt 0.000000 0.000000
vt 0.000000 0.000000
vt 0.000000 0.000000
vt 0.000000 0.000000
vt 0.000000 0.000000
vt 0.000000 0.000000
vt 0.000000 0.000000
vt 0.000000 0.000000
vt 0.000000 0.000000
vt 0.000000 0.000000
vt 0.000000 0.000000
vt 0.000000 0.000000
vt 0.000000 0.000000
vt 0.000000 0.000000
vt 0.000000 0.000000
vt 0.000000 0.000000
vt 0.000000 0.000000
vt 0.000000 0.000000
vt 0.000000 0.000000
vt 0.000000 0.000000
vt 0.000000 0.000000
vt 0.000000 0.000000
vt 0.000000 0.000000
vt 0.000000 0.000000
vt 0.000000 0.000000
vt 0.000000 0.000000
vt 0.000000 0.000000
vt 0.000000 0.000000
vt 0.000000 0.000000
vt 0.000000 0.000000
vt 0.000000 0.000000
vt 0.000000 0.000000
vt 0.000000 0.000000
vt 0.000000 0.000000
vt 0.000000 0.000000
vt 0.000000 0.000000
vn 0.0000 0.0000 1.0000
vn -1.0000 0.0000 0.0000
vn 0.0000 -1.0000 0.0000
vn 1.0000 0.0000 0.0000
vn 0.0000 1.0000 -0.0000
vn 0.0000 0.0000 -1.0000
usemtl Wood_Bamboo_Medium
s off
f 1/1/1 2/2/1 3/3/1
f 2/2/1 1/1/1 4/4/1
f 4/4/1 1/1/1 5/5/1
f 5/5/1 6/6/1 7/7/1
f 6/6/1 5/5/1 8/8/1
f 8/8/1 5/5/1 1/1/1
f 25/9/2 26/10/2 27/11/2
f 26/10/2 25/9/2 28/12/2
f 26/10/2 28/12/2 29/13/2
f 29/13/2 28/12/2 30/14/2
f 30/14/2 28/12/2 31/15/2
f 32/16/2 27/11/2 26/10/2
f 47/17/3 48/18/3 49/19/3
f 48/18/3 47/17/3 50/20/3
f 56/21/4 57/22/4 58/23/4
f 57/22/4 56/21/4 59/24/4
f 65/25/3 66/26/3 67/27/3
f 66/26/3 65/25/3 68/28/3
f 74/29/2 75/30/2 76/31/2
f 75/30/2 74/29/2 77/32/2
f 83/33/3 84/34/3 85/35/3
f 84/34/3 83/33/3 86/36/3
f 92/37/4 93/38/4 94/39/4
f 95/40/4 96/41/4 97/42/4
f 96/41/4 95/40/4 98/43/4
f 96/41/4 98/43/4 99/44/4
f 99/44/4 98/43/4 93/38/4
f 99/44/4 93/38/4 92/37/4
f 113/45/5 114/46/5 115/47/5
f 114/46/5 113/45/5 116/48/5
f 123/49/6 124/50/6 125/51/6
f 124/50/6 123/49/6 126/52/6
f 126/52/6 123/49/6 127/53/6
f 127/53/6 128/54/6 129/55/6
f 128/54/6 127/53/6 130/56/6
f 130/56/6 127/53/6 123/49/6
f 143/57/3 144/58/3 145/59/3
f 144/58/3 143/57/3 146/60/3
f 152/61/1 153/62/1 154/63/1
f 153/62/1 152/61/1 155/64/1
f 161/65/3 162/66/3 163/67/3
f 162/66/3 161/65/3 67/27/3
f 167/68/6 168/69/6 169/70/6
f 168/69/6 167/68/6 170/71/6
f 114/46/5 175/72/5 115/47/5
f 175/72/5 114/46/5 176/73/5
f 180/74/6 181/75/6 182/76/6
f 181/75/6 180/74/6 183/77/6
f 188/78/6 189/79/6 190/80/6
f 189/79/6 188/78/6 191/81/6
f 196/82/3 65/25/3 197/83/3
f 65/25/3 196/82/3 198/84/3
f 203/85/1 204/86/1 205/87/1
f 204/86/1 203/85/1 206/88/1
f 212/89/3 213/90/3 214/91/3
f 213/90/3 212/89/3 215/92/3
f 113/45/5 220/93/5 116/48/5
f 220/93/5 113/45/5 221/94/5
f 225/95/2 226/96/2 227/97/2
f 226/96/2 225/95/2 228/98/2
f 233/99/3 161/65/3 234/100/3
f 161/65/3 233/99/3 197/83/3
f 237/101/4 238/102/4 239/103/4
f 238/102/4 237/101/4 240/104/4
f 176/73/5 221/94/5 175/72/5
f 221/94/5 176/73/5 220/93/5
f 245/105/4 246/106/4 247/107/4
f 246/106/4 245/105/4 248/108/4
f 253/109/2 74/29/2 254/110/2
f 74/29/2 253/109/2 227/97/2
f 257/111/1 258/112/1 259/113/1
f 258/112/1 257/111/1 260/114/1
usemtl material
f 9/115/6 10/116/6 11/117/6
f 11/117/6 10/116/6 12/118/6
f 13/119/6 12/118/6 10/116/6
f 10/116/6 9/115/6 14/120/6
f 14/120/6 9/115/6 15/121/6
f 16/122/6 15/121/6 9/115/6
f 33/123/4 34/124/4 35/125/4
f 36/126/4 37/127/4 38/128/4
f 38/128/4 37/127/4 39/129/4
f 39/129/4 37/127/4 33/123/4
f 37/127/4 40/130/4 33/123/4
f 34/124/4 33/123/4 40/130/4
f 51/131/5 52/132/5 53/133/5
f 54/134/5 53/133/5 52/132/5
f 60/135/2 61/136/2 62/137/2
f 63/138/2 62/137/2 61/136/2
f 69/139/5 70/140/5 71/141/5
f 72/142/5 71/141/5 70/140/5
f 78/143/4 79/144/4 80/145/4
f 81/146/4 80/145/4 79/144/4
f 87/147/5 88/148/5 89/149/5
f 90/150/5 89/149/5 88/148/5
f 100/151/2 101/152/2 102/153/2
f 101/152/2 103/154/2 102/153/2
f 102/153/2 103/154/2 104/155/2
f 103/154/2 105/156/2 104/155/2
f 106/157/2 104/155/2 105/156/2
f 107/158/2 101/152/2 100/151/2
f 117/159/3 118/160/3 119/161/3
f 120/162/3 119/161/3 118/160/3
f 131/163/1 132/164/1 133/165/1
f 133/165/1 132/164/1 134/166/1
f 135/167/1 134/166/1 132/164/1
f 132/164/1 131/163/1 136/168/1
f 136/168/1 131/163/1 137/169/1
f 138/170/1 137/169/1 131/163/1
f 147/171/5 148/172/5 149/173/5
f 150/174/5 149/173/5 148/172/5
f 156/175/6 157/176/6 158/177/6
f 159/178/6 158/177/6 157/176/6
f 72/142/5 164/179/5 165/180/5
f 166/181/5 165/180/5 164/179/5
f 171/182/1 172/183/1 173/184/1
f 174/185/1 173/184/1 172/183/1
f 177/186/3 119/161/3 178/187/3
f 120/162/3 178/187/3 119/161/3
f 184/188/1 185/189/1 186/190/1
f 187/191/1 186/190/1 185/189/1
f 192/192/1 193/193/1 194/194/1
f 195/195/1 194/194/1 193/193/1
f 199/196/5 200/197/5 70/140/5
f 201/198/5 70/140/5 200/197/5
f 207/199/6 208/200/6 209/201/6
f 210/202/6 209/201/6 208/200/6
f 216/203/5 217/204/5 218/205/5
f 219/206/5 218/205/5 217/204/5
f 222/207/3 118/160/3 223/208/3
f 117/159/3 223/208/3 118/160/3
f 229/209/4 230/210/4 231/211/4
f 232/212/4 231/211/4 230/210/4
f 201/198/5 235/213/5 164/179/5
f 236/214/5 164/179/5 235/213/5
f 241/215/2 242/216/2 243/217/2
f 244/218/2 243/217/2 242/216/2
f 223/208/3 177/186/3 222/207/3
f 178/187/3 222/207/3 177/186/3
f 249/219/2 250/220/2 251/221/2
f 252/222/2 251/221/2 250/220/2
f 232/212/4 255/223/4 79/144/4
f 256/224/4 79/144/4 255/223/4
f 261/225/6 262/226/6 263/227/6
f 264/228/6 263/227/6 262/226/6
l 17 18
l 17 19
l 20 19
l 20 21
l 21 22
l 22 23
l 23 24
l 18 24
l 41 42
l 41 43
l 44 43
l 44 45
l 45 46
l 46 17
l 42 18
l 55 46
l 55 19
l 64 20
l 64 55
l 64 73
l 73 21
l 73 82
l 82 22
l 23 91
l 82 91
l 108 91
l 108 109
l 24 112
l 121 122
l 18 121
l 122 24
l 140 141
l 141 142
l 142 41
l 112 42
l 151 142
l 151 43
l 160 44
l 160 151
l 160 64
l 64 45
l 179 121
l 42 179
l 64 121
l 73 122
l 73 108
l 73 202
l 202 109
l 224 112
l 122 224
l 202 140
l 202 160
l 160 141
l 224 179
l 160 179
l 202 224
l 109 110
l 110 111
l 111 112
l 111 139
l 140 139
l 202 211
l 211 110
l 211 139
